# xmcd
#
# Track frame offsets: 
#        150
#        22348
#        38517
#        57291
#        76174
#        96074
#        110840
#        129183
#        147218
#        164552
#        182881
#        210603
#        237618
#        262647
#
# Disc length: 3832 seconds
#
# Revision: 0
# Processed by: cddbd v1.5.2PL0 Copyright (c) Steve Scherf et al.
# Submitted via: ExactAudioCopy v0.95b3
#
DISCID=be0ef60e
DTITLE=Saphir - Best Of
DYEAR=2011
DGENRE=Pop
TTITLE0=I Feel Good (I Feel Fine)
TTITLE1=The Witch-Qween Of New-Orleans
TTITLE2=Little Rock
TTITLE3=Frough Your Eyes
TTITLE4=Shot In The Night
TTITLE5=Perfect Combination
TTITLE6=Never Give Up
TTITLE7=Storms Of Love
TTITLE8=Stand Up
TTITLE9=I Am Alive (Radio Version)
TTITLE10=The Witch-Qween Of New-Orleans (Special Witch-Maxi Mix)
TTITLE11=Shot In The Night (Maxi Version).wav
TTITLE12=I Am Alive (Extended Remix)
TTITLE13=I Am Alive (Instrumental Version)
EXTD=
EXTT0=
EXTT1=
EXTT2=
EXTT3=
EXTT4=
EXTT5=
EXTT6=
EXTT7=
EXTT8=
EXTT9=
EXTT10=
EXTT11=
EXTT12=
EXTT13=
PLAYORDER=
